HIERARCHY
ROOT hip
{
	OFFSET 0.000000 0.000000 0.000000
	CHANNELS 6 Xposition Yposition Zposition Zrotation Yrotation Xrotation 
	JOINT lhipjoint
	{
		OFFSET 0.000000 0.000000 0.000000
		CHANNELS 3 Zrotation Yrotation Xrotation
		JOINT lfemur
		{
			OFFSET 1.363060 -1.794630 0.839290
			CHANNELS 3 Zrotation Yrotation Xrotation
			JOINT ltibia
			{
				OFFSET 2.448110 -6.726130 0.000000
				CHANNELS 3 Zrotation Yrotation Xrotation
				JOINT lfoot
				{
					OFFSET 2.562200 -7.039590 0.000000
					CHANNELS 3 Zrotation Yrotation Xrotation
					JOINT ltoes
					{
						OFFSET 0.157640 -0.433110 2.322550
						CHANNELS 3 Zrotation Yrotation Xrotation
						End Site
						{
							OFFSET 0.000000 0.000000 0.000000
						}
					}
				}
			}
		}
	}
	JOINT rhipjoint
	{
		OFFSET 0.000000 0.000000 0.000000
		CHANNELS 3 Zrotation Yrotation Xrotation
		JOINT rfemur
		{
			OFFSET -1.305520 -1.794630 0.839290
			CHANNELS 3 Zrotation Yrotation Xrotation
			JOINT rtibia
			{
				OFFSET -2.542530 -6.985550 0.000000
				CHANNELS 3 Zrotation Yrotation Xrotation
				JOINT rfoot
				{
					OFFSET -2.568260 -7.056230 0.000000
					CHANNELS 3 Zrotation Yrotation Xrotation
					JOINT rtoes
					{
						OFFSET -0.164730 -0.452590 2.363150
						CHANNELS 3 Zrotation Yrotation Xrotation
						End Site
						{
							OFFSET 0.000000 0.000000 0.000000
						}
					}
				}
			}
		}
	}
	JOINT lowerback
	{
		OFFSET 0.000000 0.000000 0.000000
		CHANNELS 3 Zrotation Yrotation Xrotation
		JOINT upperback
		{
			OFFSET 0.028270 2.035590 -0.193380
			CHANNELS 3 Zrotation Yrotation Xrotation
			JOINT thorax
			{
				OFFSET 0.056720 2.048850 -0.042750
				CHANNELS 3 Zrotation Yrotation Xrotation
				JOINT lowerneck
				{
					OFFSET 0.000000 0.000000 0.000000
					CHANNELS 3 Zrotation Yrotation Xrotation
					JOINT upperneck
					{
						OFFSET -0.054170 1.746240 0.172020
						CHANNELS 3 Zrotation Yrotation Xrotation
						JOINT head
						{
							OFFSET 0.104070 1.761360 -0.123970
							CHANNELS 3 Zrotation Yrotation Xrotation
							End Site
							{
								OFFSET 0.000000 0.000000 0.000000
							}
						}
					}
				}
				JOINT lclavicle
				{
					OFFSET 0.000000 0.000000 0.000000
					CHANNELS 3 Zrotation Yrotation Xrotation
					JOINT lhumerus
					{
						OFFSET 3.362410 1.200890 -0.311210
						CHANNELS 3 Zrotation Yrotation Xrotation
						JOINT lradius
						{
							OFFSET 4.983000 -0.000000 -0.000000
							CHANNELS 3 Zrotation Yrotation Xrotation
							JOINT lwrist
							{
								OFFSET 3.483560 -0.000000 -0.000000
								CHANNELS 3 Zrotation Yrotation Xrotation
								JOINT lhand
								{
									OFFSET 0.000000 0.000000 0.000000
									CHANNELS 3 Zrotation Yrotation Xrotation
									JOINT lfingers
									{
										OFFSET 0.715260 -0.000000 -0.000000
										CHANNELS 3 Zrotation Yrotation Xrotation
										End Site
										{
											OFFSET 0.000000 0.000000 0.000000
										}
									}
								}
								JOINT lthumb
								{
									OFFSET 0.000000 0.000000 0.000000
									CHANNELS 3 Zrotation Yrotation Xrotation
									End Site
									{
										OFFSET 0.000000 0.000000 0.000000
									}
								}
							}
						}
					}
				}
				JOINT rclavicle
				{
					OFFSET 0.000000 0.000000 0.000000
					CHANNELS 3 Zrotation Yrotation Xrotation
					JOINT rhumerus
					{
						OFFSET -3.136600 1.374050 -0.404650
						CHANNELS 3 Zrotation Yrotation Xrotation
						JOINT rradius
						{
							OFFSET -5.241900 -0.000000 -0.000000
							CHANNELS 3 Zrotation Yrotation Xrotation
							JOINT rwrist
							{
								OFFSET -3.444170 -0.000000 -0.000000
								CHANNELS 3 Zrotation Yrotation Xrotation
								JOINT rhand
								{
									OFFSET 0.000000 0.000000 0.000000
									CHANNELS 3 Zrotation Yrotation Xrotation
									JOINT rfingers
									{
										OFFSET -0.622530 -0.000000 -0.000000
										CHANNELS 3 Zrotation Yrotation Xrotation
										End Site
										{
											OFFSET 0.000000 0.000000 0.000000
										}
									}
								}
								JOINT rthumb
								{
									OFFSET 0.000000 0.000000 0.000000
									CHANNELS 3 Zrotation Yrotation Xrotation
									End Site
									{
										OFFSET 0.000000 0.000000 0.000000
									}
								}
							}
						}
					}
				}
			}
		}
	}
}
MOTION
Frames: 4
Frame Time: 0.008333
2.247811 16.800220 5.561364 2.814535 11.277027 -9.049985 9.366943 1.635326 -0.691912 -36.652789 -12.907227 -11.267515 5.236413 15.015008 44.797880 3.981628 -7.846644 6.847380 0.007000 0.541000 1.486500 -11.568596 -3.424637 -3.497523 23.884299 -5.494717 -11.827975 -14.081188 -18.789345 72.644718 -3.038427 4.942149 15.361238 -0.343500 3.766300 -10.420100 -3.360885 3.083232 21.859992 -0.311913 2.345474 -1.922020 -4.295428 2.378528 -2.367815 -2.332146 -2.465174 -1.413780 2.961843 -2.824423 16.247045 1.122100 -1.371700 4.909600 -0.395198 -4.484664 2.896477 -82.317843 6.200850 6.483677 7.240512 -33.109121 -3.718592 0.031031 2.250253 18.479634 10.492282 -1.966188 -0.815800 -7.125000 0.000000 0.000000 -11.617900 25.748000 5.525300 -1.482404 6.882872 5.154333 79.204112 -3.316316 47.400817 -40.126999 53.079514 -11.176094 -0.753229 -4.905263 5.545702 -16.064729 14.580646 -5.507400 7.125000 0.000000 0.000000 8.034600 -9.614400 6.647300 
2.243433 16.787184 5.680178 2.718229 11.834142 -8.982561 9.395516 1.657527 -0.763832 -36.625611 -12.975644 -11.045943 5.345901 15.136144 45.244492 4.134021 -8.417701 6.593156 0.007400 0.555500 1.526300 -11.608135 -3.496086 -3.307608 24.104446 -4.821766 -13.238118 -13.926453 -18.826285 72.147536 -3.005657 5.110673 14.180349 -0.367700 3.895300 -10.782300 -3.228487 3.019332 22.168514 -0.296276 2.273141 -1.893379 -4.263320 2.348316 -2.394465 -2.347069 -2.612276 -1.205857 2.937098 -3.006899 16.222739 1.129200 -1.463700 4.801300 -0.449170 -4.439483 2.923280 -82.294509 6.136945 8.107641 8.389806 -34.297337 -3.995553 -0.015195 2.349857 17.433752 10.466636 -1.736946 -0.790000 -7.125000 0.000000 0.000000 -11.622200 25.882400 5.490100 -1.454364 6.845695 5.174428 79.038935 -2.977550 47.128484 -39.688588 52.736520 -10.967078 -0.728125 -4.859304 5.366214 -15.607861 14.358234 -5.267700 7.125000 0.000000 0.000000 8.317600 -9.961500 6.827600 
2.237362 16.771561 5.799689 2.623195 12.438312 -8.891158 9.423848 1.678280 -0.836451 -36.586271 -13.072890 -10.852517 5.453672 15.257994 45.685976 4.290383 -9.010724 6.365345 0.008200 0.586400 1.611400 -11.644760 -3.563372 -3.118593 24.297285 -4.133818 -14.629737 -13.710241 -18.842919 71.459774 -2.996351 5.392058 12.910865 -0.393100 4.025900 -11.149700 -3.109431 2.941886 22.428661 -0.279103 2.186536 -1.859978 -4.226919 2.310611 -2.362646 -2.319413 -2.767584 -1.045636 2.906136 -3.203212 16.205910 1.109900 -1.556200 4.702500 -0.496261 -4.368434 2.951469 -82.234516 5.989635 9.643319 9.539534 -35.439095 -4.280499 -0.060880 2.436594 16.566441 10.408385 -1.572908 -0.772000 -7.125000 0.000000 0.000000 -11.646600 25.964900 5.479100 -1.415072 6.784508 5.194941 78.843829 -2.581741 46.861415 -39.215365 52.372811 -10.756600 -0.694081 -4.817365 5.162644 -15.231145 14.085364 -5.052600 7.125000 0.000000 0.000000 8.543800 -10.341900 6.951000 
2.229700 16.758327 5.921189 2.522132 13.089917 -8.795200 9.448557 1.697180 -0.910560 -36.532476 -13.188366 -10.618418 5.551698 15.367655 46.086497 4.447153 -9.615577 6.156251 0.009200 0.619100 1.701200 -11.681032 -3.623924 -2.934544 24.469179 -3.450112 -15.966465 -13.425207 -18.830350 70.554673 -2.986402 5.611674 11.804342 -0.402400 4.072500 -11.280800 -3.008584 2.857381 22.662936 -0.257122 2.097650 -1.823921 -4.124076 2.266879 -2.310936 -2.316302 -2.933371 -0.867384 2.869691 -3.412694 16.183462 1.086000 -1.654600 4.581800 -0.524542 -4.289334 2.983700 -82.216763 5.782347 11.045917 10.650760 -36.526402 -4.564650 -0.099343 2.513676 15.839708 10.331123 -1.538828 -0.776400 -7.125000 0.000000 0.000000 -11.678700 25.926100 5.505700 -1.369853 6.708094 5.220487 78.598078 -2.163164 46.573411 -38.692169 51.964365 -10.533501 -0.662785 -4.765069 4.968068 -14.854260 13.835593 -4.844400 7.125000 0.000000 0.000000 8.774500 -10.707000 7.077200 
